[2025-07-27 23:41:00] Début de génération vidéo pour 2025-07-21
[2025-07-27 23:41:00] Trouvé 24 images pour 2025-07-21
[2025-07-27 23:41:00] Génération de la vidéo MP4...
ffmpeg version 6.1.1-3ubuntu5 Copyright (c) 2000-2023 the FFmpeg developers
  built with gcc 13 (Ubuntu 13.2.0-23ubuntu3)
  configuration: --prefix=/usr --extra-version=3ubuntu5 --toolchain=hardened --libdir=/usr/lib/x86_64-linux-gnu --incdir=/usr/include/x86_64-linux-gnu --arch=amd64 --enable-gpl --disable-stripping --disable-omx --enable-gnutls --enable-libaom --enable-libass --enable-libbs2b --enable-libcaca --enable-libcdio --enable-libcodec2 --enable-libdav1d --enable-libflite --enable-libfontconfig --enable-libfreetype --enable-libfribidi --enable-libglslang --enable-libgme --enable-libgsm --enable-libharfbuzz --enable-libmp3lame --enable-libmysofa --enable-libopenjpeg --enable-libopenmpt --enable-libopus --enable-librubberband --enable-libshine --enable-libsnappy --enable-libsoxr --enable-libspeex --enable-libtheora --enable-libtwolame --enable-libvidstab --enable-libvorbis --enable-libvpx --enable-libwebp --enable-libx265 --enable-libxml2 --enable-libxvid --enable-libzimg --enable-openal --enable-opencl --enable-opengl --disable-sndio --enable-libvpl --disable-libmfx --enable-libdc1394 --enable-libdrm --enable-libiec61883 --enable-chromaprint --enable-frei0r --enable-ladspa --enable-libbluray --enable-libjack --enable-libpulse --enable-librabbitmq --enable-librist --enable-libsrt --enable-libssh --enable-libsvtav1 --enable-libx264 --enable-libzmq --enable-libzvbi --enable-lv2 --enable-sdl2 --enable-libplacebo --enable-librav1e --enable-pocketsphinx --enable-librsvg --enable-libjxl --enable-shared
  libavutil      58. 29.100 / 58. 29.100
  libavcodec     60. 31.102 / 60. 31.102
  libavformat    60. 16.100 / 60. 16.100
  libavdevice    60.  3.100 / 60.  3.100
  libavfilter     9. 12.100 /  9. 12.100
  libswscale      7.  5.100 /  7.  5.100
  libswresample   4. 12.100 /  4. 12.100
  libpostproc    57.  3.100 / 57.  3.100
[in#0 @ 0x5e63cf65b7c0] Error opening input: No such file or directory
Error opening input file /home/johann/developpement/earthimagery/public/data/images/2025-07-21/*.{jpg,jpeg,png}.
Error opening input files: No such file or directory
[2025-07-27 23:41:00] ✗ Erreur lors de la génération MP4
[2025-07-27 23:41:06] Début de génération vidéo pour 2025-07-22
[2025-07-27 23:41:06] Trouvé 24 images pour 2025-07-22
[2025-07-27 23:41:06] Génération de la vidéo MP4...
ffmpeg version 6.1.1-3ubuntu5 Copyright (c) 2000-2023 the FFmpeg developers
  built with gcc 13 (Ubuntu 13.2.0-23ubuntu3)
  configuration: --prefix=/usr --extra-version=3ubuntu5 --toolchain=hardened --libdir=/usr/lib/x86_64-linux-gnu --incdir=/usr/include/x86_64-linux-gnu --arch=amd64 --enable-gpl --disable-stripping --disable-omx --enable-gnutls --enable-libaom --enable-libass --enable-libbs2b --enable-libcaca --enable-libcdio --enable-libcodec2 --enable-libdav1d --enable-libflite --enable-libfontconfig --enable-libfreetype --enable-libfribidi --enable-libglslang --enable-libgme --enable-libgsm --enable-libharfbuzz --enable-libmp3lame --enable-libmysofa --enable-libopenjpeg --enable-libopenmpt --enable-libopus --enable-librubberband --enable-libshine --enable-libsnappy --enable-libsoxr --enable-libspeex --enable-libtheora --enable-libtwolame --enable-libvidstab --enable-libvorbis --enable-libvpx --enable-libwebp --enable-libx265 --enable-libxml2 --enable-libxvid --enable-libzimg --enable-openal --enable-opencl --enable-opengl --disable-sndio --enable-libvpl --disable-libmfx --enable-libdc1394 --enable-libdrm --enable-libiec61883 --enable-chromaprint --enable-frei0r --enable-ladspa --enable-libbluray --enable-libjack --enable-libpulse --enable-librabbitmq --enable-librist --enable-libsrt --enable-libssh --enable-libsvtav1 --enable-libx264 --enable-libzmq --enable-libzvbi --enable-lv2 --enable-sdl2 --enable-libplacebo --enable-librav1e --enable-pocketsphinx --enable-librsvg --enable-libjxl --enable-shared
  libavutil      58. 29.100 / 58. 29.100
  libavcodec     60. 31.102 / 60. 31.102
  libavformat    60. 16.100 / 60. 16.100
  libavdevice    60.  3.100 / 60.  3.100
  libavfilter     9. 12.100 /  9. 12.100
  libswscale      7.  5.100 /  7.  5.100
  libswresample   4. 12.100 /  4. 12.100
  libpostproc    57.  3.100 / 57.  3.100
[in#0 @ 0x615fe9d997c0] Error opening input: No such file or directory
Error opening input file /home/johann/developpement/earthimagery/public/data/images/2025-07-22/*.{jpg,jpeg,png}.
Error opening input files: No such file or directory
[2025-07-27 23:41:07] ✗ Erreur lors de la génération MP4
[2025-07-27 23:41:13] Début de génération vidéo pour 2025-07-23
[2025-07-27 23:41:13] Trouvé 24 images pour 2025-07-23
[2025-07-27 23:41:13] Génération de la vidéo MP4...
ffmpeg version 6.1.1-3ubuntu5 Copyright (c) 2000-2023 the FFmpeg developers
  built with gcc 13 (Ubuntu 13.2.0-23ubuntu3)
  configuration: --prefix=/usr --extra-version=3ubuntu5 --toolchain=hardened --libdir=/usr/lib/x86_64-linux-gnu --incdir=/usr/include/x86_64-linux-gnu --arch=amd64 --enable-gpl --disable-stripping --disable-omx --enable-gnutls --enable-libaom --enable-libass --enable-libbs2b --enable-libcaca --enable-libcdio --enable-libcodec2 --enable-libdav1d --enable-libflite --enable-libfontconfig --enable-libfreetype --enable-libfribidi --enable-libglslang --enable-libgme --enable-libgsm --enable-libharfbuzz --enable-libmp3lame --enable-libmysofa --enable-libopenjpeg --enable-libopenmpt --enable-libopus --enable-librubberband --enable-libshine --enable-libsnappy --enable-libsoxr --enable-libspeex --enable-libtheora --enable-libtwolame --enable-libvidstab --enable-libvorbis --enable-libvpx --enable-libwebp --enable-libx265 --enable-libxml2 --enable-libxvid --enable-libzimg --enable-openal --enable-opencl --enable-opengl --disable-sndio --enable-libvpl --disable-libmfx --enable-libdc1394 --enable-libdrm --enable-libiec61883 --enable-chromaprint --enable-frei0r --enable-ladspa --enable-libbluray --enable-libjack --enable-libpulse --enable-librabbitmq --enable-librist --enable-libsrt --enable-libssh --enable-libsvtav1 --enable-libx264 --enable-libzmq --enable-libzvbi --enable-lv2 --enable-sdl2 --enable-libplacebo --enable-librav1e --enable-pocketsphinx --enable-librsvg --enable-libjxl --enable-shared
  libavutil      58. 29.100 / 58. 29.100
  libavcodec     60. 31.102 / 60. 31.102
  libavformat    60. 16.100 / 60. 16.100
  libavdevice    60.  3.100 / 60.  3.100
  libavfilter     9. 12.100 /  9. 12.100
  libswscale      7.  5.100 /  7.  5.100
  libswresample   4. 12.100 /  4. 12.100
  libpostproc    57.  3.100 / 57.  3.100
[in#0 @ 0x586482c707c0] Error opening input: No such file or directory
Error opening input file /home/johann/developpement/earthimagery/public/data/images/2025-07-23/*.{jpg,jpeg,png}.
Error opening input files: No such file or directory
[2025-07-27 23:41:14] ✗ Erreur lors de la génération MP4
[2025-07-27 23:41:21] Début de génération vidéo pour 2025-07-24
[2025-07-27 23:41:21] Trouvé 24 images pour 2025-07-24
[2025-07-27 23:41:21] Génération de la vidéo MP4...
ffmpeg version 6.1.1-3ubuntu5 Copyright (c) 2000-2023 the FFmpeg developers
  built with gcc 13 (Ubuntu 13.2.0-23ubuntu3)
  configuration: --prefix=/usr --extra-version=3ubuntu5 --toolchain=hardened --libdir=/usr/lib/x86_64-linux-gnu --incdir=/usr/include/x86_64-linux-gnu --arch=amd64 --enable-gpl --disable-stripping --disable-omx --enable-gnutls --enable-libaom --enable-libass --enable-libbs2b --enable-libcaca --enable-libcdio --enable-libcodec2 --enable-libdav1d --enable-libflite --enable-libfontconfig --enable-libfreetype --enable-libfribidi --enable-libglslang --enable-libgme --enable-libgsm --enable-libharfbuzz --enable-libmp3lame --enable-libmysofa --enable-libopenjpeg --enable-libopenmpt --enable-libopus --enable-librubberband --enable-libshine --enable-libsnappy --enable-libsoxr --enable-libspeex --enable-libtheora --enable-libtwolame --enable-libvidstab --enable-libvorbis --enable-libvpx --enable-libwebp --enable-libx265 --enable-libxml2 --enable-libxvid --enable-libzimg --enable-openal --enable-opencl --enable-opengl --disable-sndio --enable-libvpl --disable-libmfx --enable-libdc1394 --enable-libdrm --enable-libiec61883 --enable-chromaprint --enable-frei0r --enable-ladspa --enable-libbluray --enable-libjack --enable-libpulse --enable-librabbitmq --enable-librist --enable-libsrt --enable-libssh --enable-libsvtav1 --enable-libx264 --enable-libzmq --enable-libzvbi --enable-lv2 --enable-sdl2 --enable-libplacebo --enable-librav1e --enable-pocketsphinx --enable-librsvg --enable-libjxl --enable-shared
  libavutil      58. 29.100 / 58. 29.100
  libavcodec     60. 31.102 / 60. 31.102
  libavformat    60. 16.100 / 60. 16.100
  libavdevice    60.  3.100 / 60.  3.100
  libavfilter     9. 12.100 /  9. 12.100
  libswscale      7.  5.100 /  7.  5.100
  libswresample   4. 12.100 /  4. 12.100
  libpostproc    57.  3.100 / 57.  3.100
[in#0 @ 0x615185b347c0] Error opening input: No such file or directory
Error opening input file /home/johann/developpement/earthimagery/public/data/images/2025-07-24/*.{jpg,jpeg,png}.
Error opening input files: No such file or directory
[2025-07-27 23:41:21] ✗ Erreur lors de la génération MP4
[2025-07-27 23:41:27] Début de génération vidéo pour 2025-07-25
[2025-07-27 23:41:27] Trouvé 24 images pour 2025-07-25
[2025-07-27 23:41:27] Génération de la vidéo MP4...
ffmpeg version 6.1.1-3ubuntu5 Copyright (c) 2000-2023 the FFmpeg developers
  built with gcc 13 (Ubuntu 13.2.0-23ubuntu3)
  configuration: --prefix=/usr --extra-version=3ubuntu5 --toolchain=hardened --libdir=/usr/lib/x86_64-linux-gnu --incdir=/usr/include/x86_64-linux-gnu --arch=amd64 --enable-gpl --disable-stripping --disable-omx --enable-gnutls --enable-libaom --enable-libass --enable-libbs2b --enable-libcaca --enable-libcdio --enable-libcodec2 --enable-libdav1d --enable-libflite --enable-libfontconfig --enable-libfreetype --enable-libfribidi --enable-libglslang --enable-libgme --enable-libgsm --enable-libharfbuzz --enable-libmp3lame --enable-libmysofa --enable-libopenjpeg --enable-libopenmpt --enable-libopus --enable-librubberband --enable-libshine --enable-libsnappy --enable-libsoxr --enable-libspeex --enable-libtheora --enable-libtwolame --enable-libvidstab --enable-libvorbis --enable-libvpx --enable-libwebp --enable-libx265 --enable-libxml2 --enable-libxvid --enable-libzimg --enable-openal --enable-opencl --enable-opengl --disable-sndio --enable-libvpl --disable-libmfx --enable-libdc1394 --enable-libdrm --enable-libiec61883 --enable-chromaprint --enable-frei0r --enable-ladspa --enable-libbluray --enable-libjack --enable-libpulse --enable-librabbitmq --enable-librist --enable-libsrt --enable-libssh --enable-libsvtav1 --enable-libx264 --enable-libzmq --enable-libzvbi --enable-lv2 --enable-sdl2 --enable-libplacebo --enable-librav1e --enable-pocketsphinx --enable-librsvg --enable-libjxl --enable-shared
  libavutil      58. 29.100 / 58. 29.100
  libavcodec     60. 31.102 / 60. 31.102
  libavformat    60. 16.100 / 60. 16.100
  libavdevice    60.  3.100 / 60.  3.100
  libavfilter     9. 12.100 /  9. 12.100
  libswscale      7.  5.100 /  7.  5.100
  libswresample   4. 12.100 /  4. 12.100
  libpostproc    57.  3.100 / 57.  3.100
[in#0 @ 0x55d87a6bb7c0] Error opening input: No such file or directory
Error opening input file /home/johann/developpement/earthimagery/public/data/images/2025-07-25/*.{jpg,jpeg,png}.
Error opening input files: No such file or directory
[2025-07-27 23:41:27] ✗ Erreur lors de la génération MP4
[2025-07-27 23:41:32] Début de génération vidéo pour 2025-07-26
[2025-07-27 23:41:33] Trouvé 24 images pour 2025-07-26
[2025-07-27 23:41:33] Génération de la vidéo MP4...
ffmpeg version 6.1.1-3ubuntu5 Copyright (c) 2000-2023 the FFmpeg developers
  built with gcc 13 (Ubuntu 13.2.0-23ubuntu3)
  configuration: --prefix=/usr --extra-version=3ubuntu5 --toolchain=hardened --libdir=/usr/lib/x86_64-linux-gnu --incdir=/usr/include/x86_64-linux-gnu --arch=amd64 --enable-gpl --disable-stripping --disable-omx --enable-gnutls --enable-libaom --enable-libass --enable-libbs2b --enable-libcaca --enable-libcdio --enable-libcodec2 --enable-libdav1d --enable-libflite --enable-libfontconfig --enable-libfreetype --enable-libfribidi --enable-libglslang --enable-libgme --enable-libgsm --enable-libharfbuzz --enable-libmp3lame --enable-libmysofa --enable-libopenjpeg --enable-libopenmpt --enable-libopus --enable-librubberband --enable-libshine --enable-libsnappy --enable-libsoxr --enable-libspeex --enable-libtheora --enable-libtwolame --enable-libvidstab --enable-libvorbis --enable-libvpx --enable-libwebp --enable-libx265 --enable-libxml2 --enable-libxvid --enable-libzimg --enable-openal --enable-opencl --enable-opengl --disable-sndio --enable-libvpl --disable-libmfx --enable-libdc1394 --enable-libdrm --enable-libiec61883 --enable-chromaprint --enable-frei0r --enable-ladspa --enable-libbluray --enable-libjack --enable-libpulse --enable-librabbitmq --enable-librist --enable-libsrt --enable-libssh --enable-libsvtav1 --enable-libx264 --enable-libzmq --enable-libzvbi --enable-lv2 --enable-sdl2 --enable-libplacebo --enable-librav1e --enable-pocketsphinx --enable-librsvg --enable-libjxl --enable-shared
  libavutil      58. 29.100 / 58. 29.100
  libavcodec     60. 31.102 / 60. 31.102
  libavformat    60. 16.100 / 60. 16.100
  libavdevice    60.  3.100 / 60.  3.100
  libavfilter     9. 12.100 /  9. 12.100
  libswscale      7.  5.100 /  7.  5.100
  libswresample   4. 12.100 /  4. 12.100
  libpostproc    57.  3.100 / 57.  3.100
[in#0 @ 0x5ff818caa7c0] Error opening input: No such file or directory
Error opening input file /home/johann/developpement/earthimagery/public/data/images/2025-07-26/*.{jpg,jpeg,png}.
Error opening input files: No such file or directory
[2025-07-27 23:41:33] ✗ Erreur lors de la génération MP4
[2025-07-27 23:41:39] Début de génération vidéo pour 2025-07-27
[2025-07-27 23:41:39] Trouvé 24 images pour 2025-07-27
[2025-07-27 23:41:39] Génération de la vidéo MP4...
ffmpeg version 6.1.1-3ubuntu5 Copyright (c) 2000-2023 the FFmpeg developers
  built with gcc 13 (Ubuntu 13.2.0-23ubuntu3)
  configuration: --prefix=/usr --extra-version=3ubuntu5 --toolchain=hardened --libdir=/usr/lib/x86_64-linux-gnu --incdir=/usr/include/x86_64-linux-gnu --arch=amd64 --enable-gpl --disable-stripping --disable-omx --enable-gnutls --enable-libaom --enable-libass --enable-libbs2b --enable-libcaca --enable-libcdio --enable-libcodec2 --enable-libdav1d --enable-libflite --enable-libfontconfig --enable-libfreetype --enable-libfribidi --enable-libglslang --enable-libgme --enable-libgsm --enable-libharfbuzz --enable-libmp3lame --enable-libmysofa --enable-libopenjpeg --enable-libopenmpt --enable-libopus --enable-librubberband --enable-libshine --enable-libsnappy --enable-libsoxr --enable-libspeex --enable-libtheora --enable-libtwolame --enable-libvidstab --enable-libvorbis --enable-libvpx --enable-libwebp --enable-libx265 --enable-libxml2 --enable-libxvid --enable-libzimg --enable-openal --enable-opencl --enable-opengl --disable-sndio --enable-libvpl --disable-libmfx --enable-libdc1394 --enable-libdrm --enable-libiec61883 --enable-chromaprint --enable-frei0r --enable-ladspa --enable-libbluray --enable-libjack --enable-libpulse --enable-librabbitmq --enable-librist --enable-libsrt --enable-libssh --enable-libsvtav1 --enable-libx264 --enable-libzmq --enable-libzvbi --enable-lv2 --enable-sdl2 --enable-libplacebo --enable-librav1e --enable-pocketsphinx --enable-librsvg --enable-libjxl --enable-shared
  libavutil      58. 29.100 / 58. 29.100
  libavcodec     60. 31.102 / 60. 31.102
  libavformat    60. 16.100 / 60. 16.100
  libavdevice    60.  3.100 / 60.  3.100
  libavfilter     9. 12.100 /  9. 12.100
  libswscale      7.  5.100 /  7.  5.100
  libswresample   4. 12.100 /  4. 12.100
  libpostproc    57.  3.100 / 57.  3.100
[in#0 @ 0x64fa45ade7c0] Error opening input: No such file or directory
Error opening input file /home/johann/developpement/earthimagery/public/data/images/2025-07-27/*.{jpg,jpeg,png}.
Error opening input files: No such file or directory
[2025-07-27 23:41:39] ✗ Erreur lors de la génération MP4
[2025-07-27 23:43:49] Début de génération vidéo pour 2025-07-21
[2025-07-27 23:43:49] ✗ Aucun dossier d'images trouvé pour 2025-07-21
[2025-07-27 23:43:56] Début de génération vidéo pour 2025-07-22
[2025-07-27 23:43:56] ✗ Aucun dossier d'images trouvé pour 2025-07-22
[2025-07-27 23:44:02] Début de génération vidéo pour 2025-07-23
[2025-07-27 23:44:02] ✗ Aucun dossier d'images trouvé pour 2025-07-23
[2025-07-27 23:44:09] Début de génération vidéo pour 2025-07-24
[2025-07-27 23:44:09] ✗ Aucun dossier d'images trouvé pour 2025-07-24
[2025-07-27 23:44:16] Début de génération vidéo pour 2025-07-25
[2025-07-27 23:44:16] ✗ Aucun dossier d'images trouvé pour 2025-07-25
[2025-07-27 23:44:22] Début de génération vidéo pour 2025-07-26
[2025-07-27 23:44:22] ✗ Aucun dossier d'images trouvé pour 2025-07-26
[2025-07-27 23:44:28] Début de génération vidéo pour 2025-07-27
[2025-07-27 23:44:28] ✗ Aucun dossier d'images trouvé pour 2025-07-27
[2025-07-27 23:45:26] Début de génération vidéo pour 2025-07-27
[2025-07-27 23:45:26] Trouvé 24 images pour 2025-07-27
[2025-07-27 23:45:26] Génération de la vidéo MP4...
ffmpeg version 6.1.1-3ubuntu5 Copyright (c) 2000-2023 the FFmpeg developers
  built with gcc 13 (Ubuntu 13.2.0-23ubuntu3)
  configuration: --prefix=/usr --extra-version=3ubuntu5 --toolchain=hardened --libdir=/usr/lib/x86_64-linux-gnu --incdir=/usr/include/x86_64-linux-gnu --arch=amd64 --enable-gpl --disable-stripping --disable-omx --enable-gnutls --enable-libaom --enable-libass --enable-libbs2b --enable-libcaca --enable-libcdio --enable-libcodec2 --enable-libdav1d --enable-libflite --enable-libfontconfig --enable-libfreetype --enable-libfribidi --enable-libglslang --enable-libgme --enable-libgsm --enable-libharfbuzz --enable-libmp3lame --enable-libmysofa --enable-libopenjpeg --enable-libopenmpt --enable-libopus --enable-librubberband --enable-libshine --enable-libsnappy --enable-libsoxr --enable-libspeex --enable-libtheora --enable-libtwolame --enable-libvidstab --enable-libvorbis --enable-libvpx --enable-libwebp --enable-libx265 --enable-libxml2 --enable-libxvid --enable-libzimg --enable-openal --enable-opencl --enable-opengl --disable-sndio --enable-libvpl --disable-libmfx --enable-libdc1394 --enable-libdrm --enable-libiec61883 --enable-chromaprint --enable-frei0r --enable-ladspa --enable-libbluray --enable-libjack --enable-libpulse --enable-librabbitmq --enable-librist --enable-libsrt --enable-libssh --enable-libsvtav1 --enable-libx264 --enable-libzmq --enable-libzvbi --enable-lv2 --enable-sdl2 --enable-libplacebo --enable-librav1e --enable-pocketsphinx --enable-librsvg --enable-libjxl --enable-shared
  libavutil      58. 29.100 / 58. 29.100
  libavcodec     60. 31.102 / 60. 31.102
  libavformat    60. 16.100 / 60. 16.100
  libavdevice    60.  3.100 / 60.  3.100
  libavfilter     9. 12.100 /  9. 12.100
  libswscale      7.  5.100 /  7.  5.100
  libswresample   4. 12.100 /  4. 12.100
  libpostproc    57.  3.100 / 57.  3.100
[in#0 @ 0x56760d4787c0] Error opening input: No such file or directory
Error opening input file /home/johann/developpement/earthimagery/public/data/images/2025/07/27/*.{jpg,jpeg,png}.
Error opening input files: No such file or directory
[2025-07-27 23:45:27] ✗ Erreur lors de la génération MP4
[2025-07-27 23:46:31] Début de génération vidéo pour 2025-07-27
[2025-07-27 23:46:31] Trouvé 24 images pour 2025-07-27
[2025-07-27 23:46:32] Génération de la vidéo MP4...
ffmpeg version 6.1.1-3ubuntu5 Copyright (c) 2000-2023 the FFmpeg developers
  built with gcc 13 (Ubuntu 13.2.0-23ubuntu3)
  configuration: --prefix=/usr --extra-version=3ubuntu5 --toolchain=hardened --libdir=/usr/lib/x86_64-linux-gnu --incdir=/usr/include/x86_64-linux-gnu --arch=amd64 --enable-gpl --disable-stripping --disable-omx --enable-gnutls --enable-libaom --enable-libass --enable-libbs2b --enable-libcaca --enable-libcdio --enable-libcodec2 --enable-libdav1d --enable-libflite --enable-libfontconfig --enable-libfreetype --enable-libfribidi --enable-libglslang --enable-libgme --enable-libgsm --enable-libharfbuzz --enable-libmp3lame --enable-libmysofa --enable-libopenjpeg --enable-libopenmpt --enable-libopus --enable-librubberband --enable-libshine --enable-libsnappy --enable-libsoxr --enable-libspeex --enable-libtheora --enable-libtwolame --enable-libvidstab --enable-libvorbis --enable-libvpx --enable-libwebp --enable-libx265 --enable-libxml2 --enable-libxvid --enable-libzimg --enable-openal --enable-opencl --enable-opengl --disable-sndio --enable-libvpl --disable-libmfx --enable-libdc1394 --enable-libdrm --enable-libiec61883 --enable-chromaprint --enable-frei0r --enable-ladspa --enable-libbluray --enable-libjack --enable-libpulse --enable-librabbitmq --enable-librist --enable-libsrt --enable-libssh --enable-libsvtav1 --enable-libx264 --enable-libzmq --enable-libzvbi --enable-lv2 --enable-sdl2 --enable-libplacebo --enable-librav1e --enable-pocketsphinx --enable-librsvg --enable-libjxl --enable-shared
  libavutil      58. 29.100 / 58. 29.100
  libavcodec     60. 31.102 / 60. 31.102
  libavformat    60. 16.100 / 60. 16.100
  libavdevice    60.  3.100 / 60.  3.100
  libavfilter     9. 12.100 /  9. 12.100
  libswscale      7.  5.100 /  7.  5.100
  libswresample   4. 12.100 /  4. 12.100
  libpostproc    57.  3.100 / 57.  3.100
[in#0 @ 0x5721e0a397c0] Error opening input: No such file or directory
Error opening input file /home/johann/developpement/earthimagery/public/data/images/2025/07/27/*.{jpg,jpeg,png}.
Error opening input files: No such file or directory
[2025-07-27 23:46:32] ✗ Erreur lors de la génération MP4
[2025-07-27 23:46:58] Début de génération vidéo pour 2025-07-27
[2025-07-27 23:46:58] Trouvé 24 images pour 2025-07-27
[2025-07-27 23:46:58] Génération de la vidéo MP4...
ffmpeg version 6.1.1-3ubuntu5 Copyright (c) 2000-2023 the FFmpeg developers
  built with gcc 13 (Ubuntu 13.2.0-23ubuntu3)
  configuration: --prefix=/usr --extra-version=3ubuntu5 --toolchain=hardened --libdir=/usr/lib/x86_64-linux-gnu --incdir=/usr/include/x86_64-linux-gnu --arch=amd64 --enable-gpl --disable-stripping --disable-omx --enable-gnutls --enable-libaom --enable-libass --enable-libbs2b --enable-libcaca --enable-libcdio --enable-libcodec2 --enable-libdav1d --enable-libflite --enable-libfontconfig --enable-libfreetype --enable-libfribidi --enable-libglslang --enable-libgme --enable-libgsm --enable-libharfbuzz --enable-libmp3lame --enable-libmysofa --enable-libopenjpeg --enable-libopenmpt --enable-libopus --enable-librubberband --enable-libshine --enable-libsnappy --enable-libsoxr --enable-libspeex --enable-libtheora --enable-libtwolame --enable-libvidstab --enable-libvorbis --enable-libvpx --enable-libwebp --enable-libx265 --enable-libxml2 --enable-libxvid --enable-libzimg --enable-openal --enable-opencl --enable-opengl --disable-sndio --enable-libvpl --disable-libmfx --enable-libdc1394 --enable-libdrm --enable-libiec61883 --enable-chromaprint --enable-frei0r --enable-ladspa --enable-libbluray --enable-libjack --enable-libpulse --enable-librabbitmq --enable-librist --enable-libsrt --enable-libssh --enable-libsvtav1 --enable-libx264 --enable-libzmq --enable-libzvbi --enable-lv2 --enable-sdl2 --enable-libplacebo --enable-librav1e --enable-pocketsphinx --enable-librsvg --enable-libjxl --enable-shared
  libavutil      58. 29.100 / 58. 29.100
  libavcodec     60. 31.102 / 60. 31.102
  libavformat    60. 16.100 / 60. 16.100
  libavdevice    60.  3.100 / 60.  3.100
  libavfilter     9. 12.100 /  9. 12.100
  libswscale      7.  5.100 /  7.  5.100
  libswresample   4. 12.100 /  4. 12.100
  libpostproc    57.  3.100 / 57.  3.100
Input #0, image2, from '/home/johann/developpement/earthimagery/public/data/images/2025/07/27/*.jpg':
  Duration: 00:00:00.96, start: 0.000000, bitrate: N/A
  Stream #0:0: Video: mjpeg (Baseline), yuvj444p(pc, bt470bg/unknown/unknown), 800x600, 25 fps, 25 tbr, 25 tbn
Stream mapping:
  Stream #0:0 -> #0:0 (mjpeg (native) -> h264 (libx264))
Press [q] to stop, [?] for help
[swscaler @ 0x62d879bbf100] deprecated pixel format used, make sure you did set range correctly
    Last message repeated 3 times
[libx264 @ 0x62d879a40b80] using cpu capabilities: MMX2 SSE2Fast LZCNT SSSE3 SSE4.2
[libx264 @ 0x62d879a40b80] profile High, level 3.1, 4:2:0, 8-bit
[libx264 @ 0x62d879a40b80] 264 - core 164 r3108 31e19f9 - H.264/MPEG-4 AVC codec - Copyleft 2003-2023 - http://www.videolan.org/x264.html - options: cabac=1 ref=3 deblock=1:0:0 analyse=0x3:0x113 me=hex subme=7 psy=1 psy_rd=1.00:0.00 mixed_ref=1 me_range=16 chroma_me=1 trellis=1 8x8dct=1 cqm=0 deadzone=21,11 fast_pskip=1 chroma_qp_offset=-2 threads=6 lookahead_threads=1 sliced_threads=0 nr=0 decimate=1 interlaced=0 bluray_compat=0 constrained_intra=0 bframes=3 b_pyramid=2 b_adapt=1 b_bias=0 direct=1 weightb=1 open_gop=0 weightp=2 keyint=250 keyint_min=25 scenecut=40 intra_refresh=0 rc_lookahead=40 rc=crf mbtree=1 crf=23.0 qcomp=0.60 qpmin=0 qpmax=69 qpstep=4 ip_ratio=1.40 aq=1:1.00
Output #0, mp4, to '/tmp/temp-2025-07-27.mp4':
  Metadata:
    encoder         : Lavf60.16.100
  Stream #0:0: Video: h264 (avc1 / 0x31637661), yuv420p(tv, bt470bg/unknown/unknown, progressive), 800x600, q=2-31, 25 fps, 12800 tbn
    Metadata:
      encoder         : Lavc60.31.102 libx264
    Side data:
      cpb: bitrate max/min/avg: 0/0/0 buffer size: 0 vbv_delay: N/A
frame=    0 fps=0.0 q=0.0 size=       0kB time=N/A bitrate=N/A speed=N/A    [mp4 @ 0x62d879a38500] Starting second pass: moving the moov atom to the beginning of the file
[out#0/mp4 @ 0x62d879a3ee00] video:100kB audio:0kB subtitle:0kB other streams:0kB global headers:0kB muxing overhead: 1.075384%
frame=   24 fps=0.0 q=-1.0 Lsize=     101kB time=00:00:00.84 bitrate= 989.1kbits/s speed= 1.1x    
[libx264 @ 0x62d879a40b80] frame I:1     Avg QP:19.90  size:  8742
[libx264 @ 0x62d879a40b80] frame P:15    Avg QP:19.35  size:  4348
[libx264 @ 0x62d879a40b80] frame B:8     Avg QP:19.28  size:  3512
[libx264 @ 0x62d879a40b80] consecutive B-frames: 41.7% 41.7%  0.0% 16.7%
[libx264 @ 0x62d879a40b80] mb I  I16..4:  2.5% 93.7%  3.7%
[libx264 @ 0x62d879a40b80] mb P  I16..4: 11.5% 74.6%  0.3%  P16..4:  9.9%  0.4%  0.4%  0.0%  0.0%    skip: 2.8%
[libx264 @ 0x62d879a40b80] mb B  I16..4: 14.7% 19.1%  0.0%  B16..8:  5.2%  0.3%  0.0%  direct:32.3%  skip:28.3%  L0:45.4% L1:52.6% BI: 2.0%
[libx264 @ 0x62d879a40b80] 8x8 transform intra:81.9% inter:91.9%
[libx264 @ 0x62d879a40b80] coded y,uvDC,uvAC intra: 13.7% 49.9% 0.6% inter: 15.1% 61.6% 6.5%
[libx264 @ 0x62d879a40b80] i16 v,h,dc,p: 56% 10% 27%  7%
[libx264 @ 0x62d879a40b80] i8 v,h,dc,ddl,ddr,vr,hd,vl,hu: 45%  3% 45%  6%  0%  0%  0%  1%  0%
[libx264 @ 0x62d879a40b80] i4 v,h,dc,ddl,ddr,vr,hd,vl,hu: 19% 23% 32%  4%  4%  4%  6%  4%  5%
[libx264 @ 0x62d879a40b80] i8c dc,h,v,p: 74%  8% 18%  1%
[libx264 @ 0x62d879a40b80] Weighted P-Frames: Y:46.7% UV:46.7%
[libx264 @ 0x62d879a40b80] ref P L0: 94.3%  5.3%  0.4%  0.0%
[libx264 @ 0x62d879a40b80] ref B L0: 79.7% 14.3%  6.0%
[libx264 @ 0x62d879a40b80] ref B L1: 97.3%  2.7%
[libx264 @ 0x62d879a40b80] kb/s:850.54
[2025-07-27 23:46:59] ✓ Vidéo MP4 générée: /tmp/temp-2025-07-27.mp4
[2025-07-27 23:46:59] Génération des fragments HLS...
ffmpeg version 6.1.1-3ubuntu5 Copyright (c) 2000-2023 the FFmpeg developers
  built with gcc 13 (Ubuntu 13.2.0-23ubuntu3)
  configuration: --prefix=/usr --extra-version=3ubuntu5 --toolchain=hardened --libdir=/usr/lib/x86_64-linux-gnu --incdir=/usr/include/x86_64-linux-gnu --arch=amd64 --enable-gpl --disable-stripping --disable-omx --enable-gnutls --enable-libaom --enable-libass --enable-libbs2b --enable-libcaca --enable-libcdio --enable-libcodec2 --enable-libdav1d --enable-libflite --enable-libfontconfig --enable-libfreetype --enable-libfribidi --enable-libglslang --enable-libgme --enable-libgsm --enable-libharfbuzz --enable-libmp3lame --enable-libmysofa --enable-libopenjpeg --enable-libopenmpt --enable-libopus --enable-librubberband --enable-libshine --enable-libsnappy --enable-libsoxr --enable-libspeex --enable-libtheora --enable-libtwolame --enable-libvidstab --enable-libvorbis --enable-libvpx --enable-libwebp --enable-libx265 --enable-libxml2 --enable-libxvid --enable-libzimg --enable-openal --enable-opencl --enable-opengl --disable-sndio --enable-libvpl --disable-libmfx --enable-libdc1394 --enable-libdrm --enable-libiec61883 --enable-chromaprint --enable-frei0r --enable-ladspa --enable-libbluray --enable-libjack --enable-libpulse --enable-librabbitmq --enable-librist --enable-libsrt --enable-libssh --enable-libsvtav1 --enable-libx264 --enable-libzmq --enable-libzvbi --enable-lv2 --enable-sdl2 --enable-libplacebo --enable-librav1e --enable-pocketsphinx --enable-librsvg --enable-libjxl --enable-shared
  libavutil      58. 29.100 / 58. 29.100
  libavcodec     60. 31.102 / 60. 31.102
  libavformat    60. 16.100 / 60. 16.100
  libavdevice    60.  3.100 / 60.  3.100
  libavfilter     9. 12.100 /  9. 12.100
  libswscale      7.  5.100 /  7.  5.100
  libswresample   4. 12.100 /  4. 12.100
  libpostproc    57.  3.100 / 57.  3.100
Input #0, mov,mp4,m4a,3gp,3g2,mj2, from '/tmp/temp-2025-07-27.mp4':
  Metadata:
    major_brand     : isom
    minor_version   : 512
    compatible_brands: isomiso2avc1mp41
    encoder         : Lavf60.16.100
  Duration: 00:00:00.96, start: 0.000000, bitrate: 865 kb/s
  Stream #0:0[0x1](und): Video: h264 (High) (avc1 / 0x31637661), yuv420p(tv, bt470bg/unknown/unknown, progressive), 800x600, 856 kb/s, 25 fps, 25 tbr, 12800 tbn (default)
    Metadata:
      handler_name    : VideoHandler
      vendor_id       : [0][0][0][0]
      encoder         : Lavc60.31.102 libx264
Output #0, hls, to '/home/johann/developpement/earthimagery/public/data/hls/2025-07-27/playlist.m3u8':
  Metadata:
    major_brand     : isom
    minor_version   : 512
    compatible_brands: isomiso2avc1mp41
    encoder         : Lavf60.16.100
  Stream #0:0(und): Video: h264 (High) (avc1 / 0x31637661), yuv420p(tv, bt470bg/unknown/unknown, progressive), 800x600, q=2-31, 856 kb/s, 25 fps, 25 tbr, 90k tbn (default)
    Metadata:
      handler_name    : VideoHandler
      vendor_id       : [0][0][0][0]
      encoder         : Lavc60.31.102 libx264
Stream mapping:
  Stream #0:0 -> #0:0 (copy)
Press [q] to stop, [?] for help
size=       0kB time=-00:00:00.08 bitrate=  -0.0kbits/s speed=N/A    [hls @ 0x6453832b0240] Opening '/home/johann/developpement/earthimagery/public/data/hls/2025-07-27/segment_000.ts' for writing
[hls @ 0x6453832b0240] Opening '/home/johann/developpement/earthimagery/public/data/hls/2025-07-27/playlist.m3u8.tmp' for writing
[out#0/hls @ 0x645383237e00] video:100kB audio:0kB subtitle:0kB other streams:0kB global headers:0kB muxing overhead: unknown
size=N/A time=00:00:00.84 bitrate=N/A speed=32.8x    
[2025-07-27 23:46:59] ✓ Fragments HLS générés dans /home/johann/developpement/earthimagery/public/data/hls/2025-07-27
[2025-07-27 23:46:59] ✓ Vidéo finale: /home/johann/developpement/earthimagery/public/data/videos/day-2025-07-27.mp4
[2025-07-27 23:46:59] Taille vidéo MP4: 104K
[2025-07-27 23:46:59] Taille dossier HLS: 116K
[2025-07-27 23:46:59] Génération terminée pour 2025-07-27
[2025-07-27 23:48:12] Début de génération vidéo pour 2025-07-26
[2025-07-27 23:48:12] Trouvé 24 images pour 2025-07-26
[2025-07-27 23:48:12] Génération de la vidéo MP4...
ffmpeg version 6.1.1-3ubuntu5 Copyright (c) 2000-2023 the FFmpeg developers
  built with gcc 13 (Ubuntu 13.2.0-23ubuntu3)
  configuration: --prefix=/usr --extra-version=3ubuntu5 --toolchain=hardened --libdir=/usr/lib/x86_64-linux-gnu --incdir=/usr/include/x86_64-linux-gnu --arch=amd64 --enable-gpl --disable-stripping --disable-omx --enable-gnutls --enable-libaom --enable-libass --enable-libbs2b --enable-libcaca --enable-libcdio --enable-libcodec2 --enable-libdav1d --enable-libflite --enable-libfontconfig --enable-libfreetype --enable-libfribidi --enable-libglslang --enable-libgme --enable-libgsm --enable-libharfbuzz --enable-libmp3lame --enable-libmysofa --enable-libopenjpeg --enable-libopenmpt --enable-libopus --enable-librubberband --enable-libshine --enable-libsnappy --enable-libsoxr --enable-libspeex --enable-libtheora --enable-libtwolame --enable-libvidstab --enable-libvorbis --enable-libvpx --enable-libwebp --enable-libx265 --enable-libxml2 --enable-libxvid --enable-libzimg --enable-openal --enable-opencl --enable-opengl --disable-sndio --enable-libvpl --disable-libmfx --enable-libdc1394 --enable-libdrm --enable-libiec61883 --enable-chromaprint --enable-frei0r --enable-ladspa --enable-libbluray --enable-libjack --enable-libpulse --enable-librabbitmq --enable-librist --enable-libsrt --enable-libssh --enable-libsvtav1 --enable-libx264 --enable-libzmq --enable-libzvbi --enable-lv2 --enable-sdl2 --enable-libplacebo --enable-librav1e --enable-pocketsphinx --enable-librsvg --enable-libjxl --enable-shared
  libavutil      58. 29.100 / 58. 29.100
  libavcodec     60. 31.102 / 60. 31.102
  libavformat    60. 16.100 / 60. 16.100
  libavdevice    60.  3.100 / 60.  3.100
  libavfilter     9. 12.100 /  9. 12.100
  libswscale      7.  5.100 /  7.  5.100
  libswresample   4. 12.100 /  4. 12.100
  libpostproc    57.  3.100 / 57.  3.100
Input #0, image2, from '/home/johann/developpement/earthimagery/public/data/images/2025/07/26/*.jpg':
  Duration: 00:00:00.96, start: 0.000000, bitrate: N/A
  Stream #0:0: Video: mjpeg (Baseline), yuvj444p(pc, bt470bg/unknown/unknown), 800x600, 25 fps, 25 tbr, 25 tbn
Stream mapping:
  Stream #0:0 -> #0:0 (mjpeg (native) -> h264 (libx264))
Press [q] to stop, [?] for help
[swscaler @ 0x64a3718d0d40] deprecated pixel format used, make sure you did set range correctly
    Last message repeated 3 times
[libx264 @ 0x64a371751b80] using cpu capabilities: MMX2 SSE2Fast LZCNT SSSE3 SSE4.2
[libx264 @ 0x64a371751b80] profile High, level 3.1, 4:2:0, 8-bit
[libx264 @ 0x64a371751b80] 264 - core 164 r3108 31e19f9 - H.264/MPEG-4 AVC codec - Copyleft 2003-2023 - http://www.videolan.org/x264.html - options: cabac=1 ref=3 deblock=1:0:0 analyse=0x3:0x113 me=hex subme=7 psy=1 psy_rd=1.00:0.00 mixed_ref=1 me_range=16 chroma_me=1 trellis=1 8x8dct=1 cqm=0 deadzone=21,11 fast_pskip=1 chroma_qp_offset=-2 threads=6 lookahead_threads=1 sliced_threads=0 nr=0 decimate=1 interlaced=0 bluray_compat=0 constrained_intra=0 bframes=3 b_pyramid=2 b_adapt=1 b_bias=0 direct=1 weightb=1 open_gop=0 weightp=2 keyint=250 keyint_min=25 scenecut=40 intra_refresh=0 rc_lookahead=40 rc=crf mbtree=1 crf=23.0 qcomp=0.60 qpmin=0 qpmax=69 qpstep=4 ip_ratio=1.40 aq=1:1.00
Output #0, mp4, to '/tmp/temp-2025-07-26.mp4':
  Metadata:
    encoder         : Lavf60.16.100
  Stream #0:0: Video: h264 (avc1 / 0x31637661), yuv420p(tv, bt470bg/unknown/unknown, progressive), 800x600, q=2-31, 25 fps, 12800 tbn
    Metadata:
      encoder         : Lavc60.31.102 libx264
    Side data:
      cpb: bitrate max/min/avg: 0/0/0 buffer size: 0 vbv_delay: N/A
frame=    0 fps=0.0 q=0.0 size=       0kB time=N/A bitrate=N/A speed=N/A    [mp4 @ 0x64a371749500] Starting second pass: moving the moov atom to the beginning of the file
[out#0/mp4 @ 0x64a37174fe00] video:101kB audio:0kB subtitle:0kB other streams:0kB global headers:0kB muxing overhead: 1.071474%
frame=   24 fps=0.0 q=-1.0 Lsize=     102kB time=00:00:00.84 bitrate= 992.7kbits/s speed=1.52x    
[libx264 @ 0x64a371751b80] frame I:1     Avg QP:19.91  size:  8788
[libx264 @ 0x64a371751b80] frame P:15    Avg QP:19.34  size:  4360
[libx264 @ 0x64a371751b80] frame B:8     Avg QP:19.27  size:  3532
[libx264 @ 0x64a371751b80] consecutive B-frames: 41.7% 41.7%  0.0% 16.7%
[libx264 @ 0x64a371751b80] mb I  I16..4:  1.8% 94.4%  3.7%
[libx264 @ 0x64a371751b80] mb P  I16..4: 11.2% 74.6%  0.3%  P16..4: 10.1%  0.4%  0.4%  0.0%  0.0%    skip: 2.9%
[libx264 @ 0x64a371751b80] mb B  I16..4: 14.3% 18.5%  0.0%  B16..8:  5.8%  0.3%  0.1%  direct:32.4%  skip:28.6%  L0:47.5% L1:50.8% BI: 1.6%
[libx264 @ 0x64a371751b80] 8x8 transform intra:82.2% inter:92.0%
[libx264 @ 0x64a371751b80] coded y,uvDC,uvAC intra: 13.9% 50.0% 0.6% inter: 14.7% 61.8% 6.3%
[libx264 @ 0x64a371751b80] i16 v,h,dc,p: 57% 10% 26%  7%
[libx264 @ 0x64a371751b80] i8 v,h,dc,ddl,ddr,vr,hd,vl,hu: 44%  4% 45%  6%  0%  0%  0%  1%  0%
[libx264 @ 0x64a371751b80] i4 v,h,dc,ddl,ddr,vr,hd,vl,hu: 20% 23% 30%  4%  4%  4%  5%  4%  5%
[libx264 @ 0x64a371751b80] i8c dc,h,v,p: 74%  8% 18%  1%
[libx264 @ 0x64a371751b80] Weighted P-Frames: Y:46.7% UV:46.7%
[libx264 @ 0x64a371751b80] ref P L0: 94.4%  5.1%  0.5%  0.0%  0.0%
[libx264 @ 0x64a371751b80] ref B L0: 80.3% 15.0%  4.7%
[libx264 @ 0x64a371751b80] ref B L1: 94.0%  6.0%
[libx264 @ 0x64a371751b80] kb/s:853.67
[2025-07-27 23:48:13] ✓ Vidéo MP4 générée: /tmp/temp-2025-07-26.mp4
[2025-07-27 23:48:13] Génération des fragments HLS...
ffmpeg version 6.1.1-3ubuntu5 Copyright (c) 2000-2023 the FFmpeg developers
  built with gcc 13 (Ubuntu 13.2.0-23ubuntu3)
  configuration: --prefix=/usr --extra-version=3ubuntu5 --toolchain=hardened --libdir=/usr/lib/x86_64-linux-gnu --incdir=/usr/include/x86_64-linux-gnu --arch=amd64 --enable-gpl --disable-stripping --disable-omx --enable-gnutls --enable-libaom --enable-libass --enable-libbs2b --enable-libcaca --enable-libcdio --enable-libcodec2 --enable-libdav1d --enable-libflite --enable-libfontconfig --enable-libfreetype --enable-libfribidi --enable-libglslang --enable-libgme --enable-libgsm --enable-libharfbuzz --enable-libmp3lame --enable-libmysofa --enable-libopenjpeg --enable-libopenmpt --enable-libopus --enable-librubberband --enable-libshine --enable-libsnappy --enable-libsoxr --enable-libspeex --enable-libtheora --enable-libtwolame --enable-libvidstab --enable-libvorbis --enable-libvpx --enable-libwebp --enable-libx265 --enable-libxml2 --enable-libxvid --enable-libzimg --enable-openal --enable-opencl --enable-opengl --disable-sndio --enable-libvpl --disable-libmfx --enable-libdc1394 --enable-libdrm --enable-libiec61883 --enable-chromaprint --enable-frei0r --enable-ladspa --enable-libbluray --enable-libjack --enable-libpulse --enable-librabbitmq --enable-librist --enable-libsrt --enable-libssh --enable-libsvtav1 --enable-libx264 --enable-libzmq --enable-libzvbi --enable-lv2 --enable-sdl2 --enable-libplacebo --enable-librav1e --enable-pocketsphinx --enable-librsvg --enable-libjxl --enable-shared
  libavutil      58. 29.100 / 58. 29.100
  libavcodec     60. 31.102 / 60. 31.102
  libavformat    60. 16.100 / 60. 16.100
  libavdevice    60.  3.100 / 60.  3.100
  libavfilter     9. 12.100 /  9. 12.100
  libswscale      7.  5.100 /  7.  5.100
  libswresample   4. 12.100 /  4. 12.100
  libpostproc    57.  3.100 / 57.  3.100
Input #0, mov,mp4,m4a,3gp,3g2,mj2, from '/tmp/temp-2025-07-26.mp4':
  Metadata:
    major_brand     : isom
    minor_version   : 512
    compatible_brands: isomiso2avc1mp41
    encoder         : Lavf60.16.100
  Duration: 00:00:00.96, start: 0.000000, bitrate: 868 kb/s
  Stream #0:0[0x1](und): Video: h264 (High) (avc1 / 0x31637661), yuv420p(tv, bt470bg/unknown/unknown, progressive), 800x600, 859 kb/s, 25 fps, 25 tbr, 12800 tbn (default)
    Metadata:
      handler_name    : VideoHandler
      vendor_id       : [0][0][0][0]
      encoder         : Lavc60.31.102 libx264
Output #0, hls, to '/home/johann/developpement/earthimagery/public/data/hls/2025-07-26/playlist.m3u8':
  Metadata:
    major_brand     : isom
    minor_version   : 512
    compatible_brands: isomiso2avc1mp41
    encoder         : Lavf60.16.100
  Stream #0:0(und): Video: h264 (High) (avc1 / 0x31637661), yuv420p(tv, bt470bg/unknown/unknown, progressive), 800x600, q=2-31, 859 kb/s, 25 fps, 25 tbr, 90k tbn (default)
    Metadata:
      handler_name    : VideoHandler
      vendor_id       : [0][0][0][0]
      encoder         : Lavc60.31.102 libx264
Stream mapping:
  Stream #0:0 -> #0:0 (copy)
Press [q] to stop, [?] for help
size=       0kB time=-00:00:00.08 bitrate=  -0.0kbits/s speed=N/A    [hls @ 0x59f05645e280] Opening '/home/johann/developpement/earthimagery/public/data/hls/2025-07-26/segment_000.ts' for writing
[hls @ 0x59f05645e280] Opening '/home/johann/developpement/earthimagery/public/data/hls/2025-07-26/playlist.m3u8.tmp' for writing
[out#0/hls @ 0x59f0563e5e00] video:101kB audio:0kB subtitle:0kB other streams:0kB global headers:0kB muxing overhead: unknown
size=N/A time=00:00:00.84 bitrate=N/A speed=47.4x    
[2025-07-27 23:48:13] ✓ Fragments HLS générés dans /home/johann/developpement/earthimagery/public/data/hls/2025-07-26
[2025-07-27 23:48:13] ✓ Vidéo finale: /home/johann/developpement/earthimagery/public/data/videos/day-2025-07-26.mp4
[2025-07-27 23:48:13] Taille vidéo MP4: 104K
[2025-07-27 23:48:13] Taille dossier HLS: 116K
[2025-07-27 23:48:13] Génération terminée pour 2025-07-26
[2025-07-27 23:48:13] Début de génération vidéo pour 2025-07-25
[2025-07-27 23:48:13] Trouvé 24 images pour 2025-07-25
[2025-07-27 23:48:13] Génération de la vidéo MP4...
ffmpeg version 6.1.1-3ubuntu5 Copyright (c) 2000-2023 the FFmpeg developers
  built with gcc 13 (Ubuntu 13.2.0-23ubuntu3)
  configuration: --prefix=/usr --extra-version=3ubuntu5 --toolchain=hardened --libdir=/usr/lib/x86_64-linux-gnu --incdir=/usr/include/x86_64-linux-gnu --arch=amd64 --enable-gpl --disable-stripping --disable-omx --enable-gnutls --enable-libaom --enable-libass --enable-libbs2b --enable-libcaca --enable-libcdio --enable-libcodec2 --enable-libdav1d --enable-libflite --enable-libfontconfig --enable-libfreetype --enable-libfribidi --enable-libglslang --enable-libgme --enable-libgsm --enable-libharfbuzz --enable-libmp3lame --enable-libmysofa --enable-libopenjpeg --enable-libopenmpt --enable-libopus --enable-librubberband --enable-libshine --enable-libsnappy --enable-libsoxr --enable-libspeex --enable-libtheora --enable-libtwolame --enable-libvidstab --enable-libvorbis --enable-libvpx --enable-libwebp --enable-libx265 --enable-libxml2 --enable-libxvid --enable-libzimg --enable-openal --enable-opencl --enable-opengl --disable-sndio --enable-libvpl --disable-libmfx --enable-libdc1394 --enable-libdrm --enable-libiec61883 --enable-chromaprint --enable-frei0r --enable-ladspa --enable-libbluray --enable-libjack --enable-libpulse --enable-librabbitmq --enable-librist --enable-libsrt --enable-libssh --enable-libsvtav1 --enable-libx264 --enable-libzmq --enable-libzvbi --enable-lv2 --enable-sdl2 --enable-libplacebo --enable-librav1e --enable-pocketsphinx --enable-librsvg --enable-libjxl --enable-shared
  libavutil      58. 29.100 / 58. 29.100
  libavcodec     60. 31.102 / 60. 31.102
  libavformat    60. 16.100 / 60. 16.100
  libavdevice    60.  3.100 / 60.  3.100
  libavfilter     9. 12.100 /  9. 12.100
  libswscale      7.  5.100 /  7.  5.100
  libswresample   4. 12.100 /  4. 12.100
  libpostproc    57.  3.100 / 57.  3.100
Input #0, image2, from '/home/johann/developpement/earthimagery/public/data/images/2025/07/25/*.jpg':
  Duration: 00:00:00.96, start: 0.000000, bitrate: N/A
  Stream #0:0: Video: mjpeg (Baseline), yuvj444p(pc, bt470bg/unknown/unknown), 800x600, 25 fps, 25 tbr, 25 tbn
Stream mapping:
  Stream #0:0 -> #0:0 (mjpeg (native) -> h264 (libx264))
Press [q] to stop, [?] for help
[swscaler @ 0x5fb813778a40] deprecated pixel format used, make sure you did set range correctly
    Last message repeated 3 times
[libx264 @ 0x5fb8135f9b80] using cpu capabilities: MMX2 SSE2Fast LZCNT SSSE3 SSE4.2
[libx264 @ 0x5fb8135f9b80] profile High, level 3.1, 4:2:0, 8-bit
[libx264 @ 0x5fb8135f9b80] 264 - core 164 r3108 31e19f9 - H.264/MPEG-4 AVC codec - Copyleft 2003-2023 - http://www.videolan.org/x264.html - options: cabac=1 ref=3 deblock=1:0:0 analyse=0x3:0x113 me=hex subme=7 psy=1 psy_rd=1.00:0.00 mixed_ref=1 me_range=16 chroma_me=1 trellis=1 8x8dct=1 cqm=0 deadzone=21,11 fast_pskip=1 chroma_qp_offset=-2 threads=6 lookahead_threads=1 sliced_threads=0 nr=0 decimate=1 interlaced=0 bluray_compat=0 constrained_intra=0 bframes=3 b_pyramid=2 b_adapt=1 b_bias=0 direct=1 weightb=1 open_gop=0 weightp=2 keyint=250 keyint_min=25 scenecut=40 intra_refresh=0 rc_lookahead=40 rc=crf mbtree=1 crf=23.0 qcomp=0.60 qpmin=0 qpmax=69 qpstep=4 ip_ratio=1.40 aq=1:1.00
Output #0, mp4, to '/tmp/temp-2025-07-25.mp4':
  Metadata:
    encoder         : Lavf60.16.100
  Stream #0:0: Video: h264 (avc1 / 0x31637661), yuv420p(tv, bt470bg/unknown/unknown, progressive), 800x600, q=2-31, 25 fps, 12800 tbn
    Metadata:
      encoder         : Lavc60.31.102 libx264
    Side data:
      cpb: bitrate max/min/avg: 0/0/0 buffer size: 0 vbv_delay: N/A
frame=    0 fps=0.0 q=0.0 size=       0kB time=N/A bitrate=N/A speed=N/A    [mp4 @ 0x5fb8135f1500] Starting second pass: moving the moov atom to the beginning of the file
[out#0/mp4 @ 0x5fb8135f7e00] video:101kB audio:0kB subtitle:0kB other streams:0kB global headers:0kB muxing overhead: 1.071619%
frame=   24 fps=0.0 q=-1.0 Lsize=     102kB time=00:00:00.84 bitrate= 992.6kbits/s speed=1.69x    
[libx264 @ 0x5fb8135f9b80] frame I:1     Avg QP:19.90  size:  8776
[libx264 @ 0x5fb8135f9b80] frame P:15    Avg QP:19.34  size:  4369
[libx264 @ 0x5fb8135f9b80] frame B:8     Avg QP:19.24  size:  3515
[libx264 @ 0x5fb8135f9b80] consecutive B-frames: 41.7% 41.7%  0.0% 16.7%
[libx264 @ 0x5fb8135f9b80] mb I  I16..4:  1.9% 94.3%  3.7%
[libx264 @ 0x5fb8135f9b80] mb P  I16..4: 11.6% 74.3%  0.3%  P16..4: 10.0%  0.4%  0.4%  0.0%  0.0%    skip: 3.0%
[libx264 @ 0x5fb8135f9b80] mb B  I16..4: 14.9% 18.7%  0.0%  B16..8:  5.3%  0.2%  0.1%  direct:32.5%  skip:28.2%  L0:44.9% L1:53.6% BI: 1.6%
[libx264 @ 0x5fb8135f9b80] 8x8 transform intra:81.7% inter:92.3%
[libx264 @ 0x5fb8135f9b80] coded y,uvDC,uvAC intra: 13.8% 50.1% 0.7% inter: 15.0% 61.7% 6.4%
[libx264 @ 0x5fb8135f9b80] i16 v,h,dc,p: 57%  9% 26%  7%
[libx264 @ 0x5fb8135f9b80] i8 v,h,dc,ddl,ddr,vr,hd,vl,hu: 41%  3% 49%  6%  0%  0%  0%  1%  0%
[libx264 @ 0x5fb8135f9b80] i4 v,h,dc,ddl,ddr,vr,hd,vl,hu: 20% 24% 30%  4%  4%  4%  6%  4%  5%
[libx264 @ 0x5fb8135f9b80] i8c dc,h,v,p: 74%  8% 18%  1%
[libx264 @ 0x5fb8135f9b80] Weighted P-Frames: Y:46.7% UV:46.7%
[libx264 @ 0x5fb8135f9b80] ref P L0: 94.6%  4.9%  0.5%  0.0%  0.0%
[libx264 @ 0x5fb8135f9b80] ref B L0: 79.4% 15.4%  5.2%
[libx264 @ 0x5fb8135f9b80] ref B L1: 96.3%  3.7%
[libx264 @ 0x5fb8135f9b80] kb/s:853.55
[2025-07-27 23:48:14] ✓ Vidéo MP4 générée: /tmp/temp-2025-07-25.mp4
[2025-07-27 23:48:14] Génération des fragments HLS...
ffmpeg version 6.1.1-3ubuntu5 Copyright (c) 2000-2023 the FFmpeg developers
  built with gcc 13 (Ubuntu 13.2.0-23ubuntu3)
  configuration: --prefix=/usr --extra-version=3ubuntu5 --toolchain=hardened --libdir=/usr/lib/x86_64-linux-gnu --incdir=/usr/include/x86_64-linux-gnu --arch=amd64 --enable-gpl --disable-stripping --disable-omx --enable-gnutls --enable-libaom --enable-libass --enable-libbs2b --enable-libcaca --enable-libcdio --enable-libcodec2 --enable-libdav1d --enable-libflite --enable-libfontconfig --enable-libfreetype --enable-libfribidi --enable-libglslang --enable-libgme --enable-libgsm --enable-libharfbuzz --enable-libmp3lame --enable-libmysofa --enable-libopenjpeg --enable-libopenmpt --enable-libopus --enable-librubberband --enable-libshine --enable-libsnappy --enable-libsoxr --enable-libspeex --enable-libtheora --enable-libtwolame --enable-libvidstab --enable-libvorbis --enable-libvpx --enable-libwebp --enable-libx265 --enable-libxml2 --enable-libxvid --enable-libzimg --enable-openal --enable-opencl --enable-opengl --disable-sndio --enable-libvpl --disable-libmfx --enable-libdc1394 --enable-libdrm --enable-libiec61883 --enable-chromaprint --enable-frei0r --enable-ladspa --enable-libbluray --enable-libjack --enable-libpulse --enable-librabbitmq --enable-librist --enable-libsrt --enable-libssh --enable-libsvtav1 --enable-libx264 --enable-libzmq --enable-libzvbi --enable-lv2 --enable-sdl2 --enable-libplacebo --enable-librav1e --enable-pocketsphinx --enable-librsvg --enable-libjxl --enable-shared
  libavutil      58. 29.100 / 58. 29.100
  libavcodec     60. 31.102 / 60. 31.102
  libavformat    60. 16.100 / 60. 16.100
  libavdevice    60.  3.100 / 60.  3.100
  libavfilter     9. 12.100 /  9. 12.100
  libswscale      7.  5.100 /  7.  5.100
  libswresample   4. 12.100 /  4. 12.100
  libpostproc    57.  3.100 / 57.  3.100
Input #0, mov,mp4,m4a,3gp,3g2,mj2, from '/tmp/temp-2025-07-25.mp4':
  Metadata:
    major_brand     : isom
    minor_version   : 512
    compatible_brands: isomiso2avc1mp41
    encoder         : Lavf60.16.100
  Duration: 00:00:00.96, start: 0.000000, bitrate: 868 kb/s
  Stream #0:0[0x1](und): Video: h264 (High) (avc1 / 0x31637661), yuv420p(tv, bt470bg/unknown/unknown, progressive), 800x600, 859 kb/s, 25 fps, 25 tbr, 12800 tbn (default)
    Metadata:
      handler_name    : VideoHandler
      vendor_id       : [0][0][0][0]
      encoder         : Lavc60.31.102 libx264
Output #0, hls, to '/home/johann/developpement/earthimagery/public/data/hls/2025-07-25/playlist.m3u8':
  Metadata:
    major_brand     : isom
    minor_version   : 512
    compatible_brands: isomiso2avc1mp41
    encoder         : Lavf60.16.100
  Stream #0:0(und): Video: h264 (High) (avc1 / 0x31637661), yuv420p(tv, bt470bg/unknown/unknown, progressive), 800x600, q=2-31, 859 kb/s, 25 fps, 25 tbr, 90k tbn (default)
    Metadata:
      handler_name    : VideoHandler
      vendor_id       : [0][0][0][0]
      encoder         : Lavc60.31.102 libx264
Stream mapping:
  Stream #0:0 -> #0:0 (copy)
Press [q] to stop, [?] for help
size=       0kB time=-00:00:00.08 bitrate=  -0.0kbits/s speed=N/A    [hls @ 0x61a76e6a5280] Opening '/home/johann/developpement/earthimagery/public/data/hls/2025-07-25/segment_000.ts' for writing
[hls @ 0x61a76e6a5280] Opening '/home/johann/developpement/earthimagery/public/data/hls/2025-07-25/playlist.m3u8.tmp' for writing
[out#0/hls @ 0x61a76e62ce00] video:101kB audio:0kB subtitle:0kB other streams:0kB global headers:0kB muxing overhead: unknown
size=N/A time=00:00:00.84 bitrate=N/A speed=49.9x    
[2025-07-27 23:48:14] ✓ Fragments HLS générés dans /home/johann/developpement/earthimagery/public/data/hls/2025-07-25
[2025-07-27 23:48:14] ✓ Vidéo finale: /home/johann/developpement/earthimagery/public/data/videos/day-2025-07-25.mp4
[2025-07-27 23:48:14] Taille vidéo MP4: 104K
[2025-07-27 23:48:14] Taille dossier HLS: 116K
[2025-07-27 23:48:14] Génération terminée pour 2025-07-25
